<?xml version="1.0" encoding="UTF-8"?>
<svg version="1.1" xmlns="http://www.w3.org/2000/svg" width="512" height="512">
<path d="M0 0 C0.84653641 -0.00979385 1.69307281 -0.01958771 2.56526184 -0.02967834 C22.01168898 -0.20815114 40.78826093 0.1136321 59.8828125 4.23828125 C60.87716309 4.45258789 61.87151367 4.66689453 62.89599609 4.88769531 C105.42422585 14.40304911 143.88157875 35.73321425 174.8828125 66.23828125 C175.90029658 67.21822214 176.9184911 68.19742607 177.9375 69.17578125 C184.08699338 75.17196316 189.65406126 81.42659082 194.8828125 88.23828125 C195.58978271 89.14731201 195.58978271 89.14731201 196.31103516 90.07470703 C218.1919495 118.41297201 232.84921996 151.28932909 240.1328125 186.30078125 C240.35976807 187.37743042 240.35976807 187.37743042 240.59130859 188.47583008 C244.10759931 206.66319817 244.19824885 224.96848557 244.18439507 243.41988778 C244.18331042 246.28835314 244.18824455 249.15679709 244.1930005 252.02525777 C244.20399762 258.78728197 244.20458445 265.54925054 244.19848633 272.3112793 C244.19241017 279.26725046 244.2048715 286.22302122 244.2260564 293.17895824 C244.2436755 299.18704167 244.24967457 305.19506121 244.24641865 311.20316952 C244.2446113 314.77682729 244.24718999 318.3503409 244.26113319 321.92397499 C244.27605349 325.89381473 244.26673893 329.86339686 244.25512695 333.83325195 C244.26277069 335.00677719 244.27041443 336.18030243 244.27828979 337.38938904 C244.23473729 344.11410916 243.7030492 348.72514744 239.3684082 354.12475586 C234.8974924 358.47456334 230.14441516 362.18123014 225.0703125 365.80078125 C218.43740839 370.60682893 211.8928452 375.49851773 205.4453125 380.55078125 C199.75983604 385.00104914 194.04472783 389.39794001 188.25390625 393.7109375 C183.68684552 397.12228728 179.16389894 400.59190279 174.6328125 404.05078125 C167.50421947 409.49130721 160.35681411 414.90453048 153.16845703 420.26586914 C148.87484819 423.47347387 144.64785769 426.75310948 140.484375 430.12890625 C138.8828125 431.23828125 138.8828125 431.23828125 136.8828125 431.23828125 C136.89280525 432.49615952 136.89280525 432.49615952 136.90299988 433.77944946 C136.96319178 441.69483498 137.00882792 449.61014327 137.03824902 457.52570534 C137.05388337 461.5948732 137.07508059 465.66385142 137.10913086 469.73291016 C137.14180433 473.66217276 137.15968229 477.59125332 137.16744423 481.52064133 C137.17297345 483.01731607 137.18377074 484.51398122 137.20000267 486.01057816 C137.22188393 488.11224902 137.22477508 490.21317437 137.22338867 492.31494141 C137.23338142 494.10697495 137.23338142 494.10697495 137.24357605 495.93521118 C136.65936768 501.28409183 134.53713108 505.17084223 130.3828125 508.55078125 C129.795 509.04191406 129.2071875 509.53304688 128.6015625 510.0390625 C123.49642858 513.60105366 116.57578822 512.50410867 110.6328125 512.55078125 C109.41722656 512.57978516 108.20164062 512.60878906 106.94921875 512.63867188 C100.04358566 512.68762129 95.41285256 512.54458696 89.8828125 508.23828125 C85.72725066 502.87979362 84.76663326 499.09191728 84.671875 492.41015625 C84.64379232 491.03905085 84.61512777 489.66795727 84.5859375 488.296875 C84.54482238 486.14665235 84.50791547 483.99664693 84.48144531 481.84619141 C84.45361035 479.76288835 84.40773274 477.68057119 84.359375 475.59765625 C84.33955566 474.35467773 84.31973633 473.11169922 84.29931641 471.83105469 C83.81229182 467.62996801 82.82928617 464.9811001 80.8828125 461.23828125 C77.66425053 458.94952607 75.76423116 458.23828125 71.8203125 458.23828125 C68.11301006 459.50034165 66.37211903 461.25111341 63.8828125 464.23828125 C62.71176213 467.75143237 62.73944965 470.57873002 62.70703125 474.28515625 C62.68382274 475.70183761 62.65970499 477.11850431 62.63476562 478.53515625 C62.59975969 480.75791093 62.57036192 482.98012909 62.55688477 485.203125 C62.54129375 487.35612416 62.50101289 489.50757315 62.45703125 491.66015625 C62.44244873 492.9450293 62.42786621 494.22990234 62.4128418 495.55371094 C61.63184238 500.98293399 59.25915111 505.68057939 54.8203125 509.11328125 C49.24237573 513.14838445 43.53565105 512.70654213 36.8828125 512.23828125 C31.43033052 510.52175914 28.0950116 506.84208452 24.8828125 502.23828125 C23.71087022 498.72245441 23.72250514 495.8654883 23.671875 492.15625 C23.64379933 490.73501466 23.61513481 489.31379086 23.5859375 487.89257812 C23.54476279 485.66105563 23.50785943 483.4297468 23.48144531 481.19799805 C23.45368605 479.03780095 23.40781387 476.87856959 23.359375 474.71875 C23.33955566 473.42864014 23.31973633 472.13853027 23.29931641 470.80932617 C22.85004272 466.95731781 21.91542841 464.52292329 19.8828125 461.23828125 C16.47046391 458.83412656 14.50091559 458.23828125 10.3203125 458.23828125 C6.22336068 459.43012178 4.54550483 460.94907308 1.8828125 464.23828125 C0.71176213 467.75143237 0.73944965 470.57873002 0.70703125 474.28515625 C0.68382274 475.70183761 0.65970499 477.11850431 0.63476562 478.53515625 C0.59975969 480.75791093 0.57036192 482.98012909 0.55688477 485.203125 C0.54129375 487.35612416 0.50101289 489.50757315 0.45703125 491.66015625 C0.44244873 492.9450293 0.42786621 494.22990234 0.4128418 495.55371094 C-0.36815762 500.98293399 -2.74084889 505.68057939 -7.1796875 509.11328125 C-12.75762427 513.14838445 -18.46434895 512.70654213 -25.1171875 512.23828125 C-30.56966948 510.52175914 -33.9049884 506.84208452 -37.1171875 502.23828125 C-38.28912978 498.72245441 -38.27749486 495.8654883 -38.328125 492.15625 C-38.35620067 490.73501466 -38.38486519 489.31379086 -38.4140625 487.89257812 C-38.45523721 485.66105563 -38.49214057 483.4297468 -38.51855469 481.19799805 C-38.54631395 479.03780095 -38.59218613 476.87856959 -38.640625 474.71875 C-38.66044434 473.42864014 -38.68026367 472.13853027 -38.70068359 470.80932617 C-39.15010559 466.95604623 -40.08022057 464.52214265 -42.1171875 461.23828125 C-45.33244035 459.02332929 -47.27263031 458.23828125 -51.1796875 458.23828125 C-54.91203293 459.50886693 -56.64250144 461.19795266 -59.1171875 464.23828125 C-60.40369455 467.81370294 -60.27474778 471.43196219 -60.328125 475.19921875 C-60.35619411 476.5716265 -60.38485858 477.94402218 -60.4140625 479.31640625 C-60.4552591 481.46451467 -60.49217665 483.61239779 -60.51855469 485.76074219 C-60.54631746 487.84486489 -60.59217924 489.92798743 -60.640625 492.01171875 C-60.66044434 493.25356934 -60.68026367 494.49541992 -60.70068359 495.77490234 C-61.35658174 501.22892996 -63.40419362 505.12484555 -67.6796875 508.55078125 C-68.27910156 509.04191406 -68.87851563 509.53304688 -69.49609375 510.0390625 C-74.34250094 513.62423602 -80.57985536 512.46429231 -86.3671875 512.48828125 C-88.20990234 512.51921875 -88.20990234 512.51921875 -90.08984375 512.55078125 C-91.27964844 512.5559375 -92.46945313 512.56109375 -93.6953125 512.56640625 C-94.78231445 512.57575195 -95.86931641 512.58509766 -96.98925781 512.59472656 C-102.24135871 511.9962199 -106.11365248 509.81405475 -109.4296875 505.73828125 C-109.92082031 505.15046875 -110.41195312 504.56265625 -110.91796875 503.95703125 C-113.45278262 500.32407326 -113.23863231 496.93992357 -113.23071289 492.65551758 C-113.23085892 491.9918367 -113.23100494 491.32815582 -113.2311554 490.6443634 C-113.23045932 488.45297973 -113.2226812 486.2616813 -113.21484375 484.0703125 C-113.21297849 482.55002387 -113.21155509 481.02973464 -113.21055603 479.50944519 C-113.20673938 475.50963682 -113.19691635 471.50986481 -113.18585205 467.5100708 C-113.17561963 463.42794283 -113.17105448 459.34580898 -113.16601562 455.26367188 C-113.15529333 447.25519166 -113.13822711 439.24674098 -113.1171875 431.23828125 C-114.04801651 430.78319183 -114.04801651 430.78319183 -114.99765015 430.31890869 C-117.18772722 429.2023172 -119.05355683 427.93071645 -121.03125 426.47265625 C-121.78301514 425.9194873 -122.53478027 425.36631836 -123.30932617 424.79638672 C-124.11217041 424.19971191 -124.91501465 423.60303711 -125.7421875 422.98828125 C-127.00156128 422.05653076 -127.00156128 422.05653076 -128.28637695 421.10595703 C-134.78416813 416.27777521 -141.1879407 411.33632218 -147.56176758 406.34619141 C-152.94672354 402.13351477 -158.38781381 398.00529863 -163.86791992 393.91748047 C-169.47938366 389.7280103 -175.05124311 385.48799223 -180.6171875 381.23828125 C-186.33769204 376.87109234 -192.06415483 372.51317389 -197.82714844 368.20214844 C-199.16527983 367.200952 -200.50192302 366.19776278 -201.83691406 365.19238281 C-204.5237021 363.16924122 -207.21483599 361.16920299 -209.9609375 359.2265625 C-210.755 358.65292969 -211.5490625 358.07929688 -212.3671875 357.48828125 C-213.01171875 357.0396875 -213.65625 356.59109375 -214.3203125 356.12890625 C-220.63529917 349.48444201 -220.6913371 342.36585652 -220.61889648 333.68554688 C-220.62429947 332.44521194 -220.62970245 331.20487701 -220.63526917 329.92695618 C-220.6456013 326.53920577 -220.63808137 323.15243962 -220.62155795 319.76477623 C-220.60760288 316.18990149 -220.61418119 312.61505337 -220.61769104 309.04016113 C-220.62039057 303.0213206 -220.60695912 297.00267968 -220.58374023 290.98388672 C-220.5573257 284.09039597 -220.55532217 277.19724283 -220.5671286 270.30371904 C-220.57804487 263.61566006 -220.57160026 256.92771955 -220.55757332 250.2396698 C-220.55191219 247.42373245 -220.55181657 244.60788469 -220.55663872 241.79194641 C-220.62872748 184.97598133 -205.80138172 132.15965974 -170.1171875 87.23828125 C-169.67971191 86.68366211 -169.24223633 86.12904297 -168.79150391 85.55761719 C-156.98315328 70.71721011 -143.38986976 57.46435539 -128.1171875 46.23828125 C-127.17488281 45.52414063 -126.23257813 44.81 -125.26171875 44.07421875 C-89.84746384 17.6029575 -44.45903177 0.42835276 0 0 Z M-134.1171875 238.23828125 C-145.63902641 253.04904287 -149.69095594 269.8369938 -148.1171875 288.23828125 C-145.67704748 305.11982688 -136.59128103 319.66917181 -123.2421875 330.11328125 C-108.55449514 340.52481001 -91.85908708 344.47434653 -74.0546875 341.9453125 C-57.96025007 338.97550559 -43.93802877 330.39819982 -33.98828125 317.47265625 C-23.49198183 301.60352106 -19.56084574 284.82281251 -22.47167969 265.93847656 C-26.06101391 248.95726628 -36.84870965 234.49514449 -51.1796875 224.98828125 C-79.12750546 208.83347318 -112.50928143 214.44677079 -134.1171875 238.23828125 Z M59.91015625 238.39453125 C49.37697036 251.17325347 44.04701314 267.09343679 45.09765625 283.6171875 C47.09768934 300.66508857 54.22245259 317.26565949 67.8828125 328.23828125 C83.49539535 339.65606839 100.79436371 344.70832805 119.99072266 341.93359375 C137.48611741 338.59383493 151.72043189 328.71608136 161.9453125 314.2734375 C171.05360787 300.00499899 174.39509794 282.86786467 171.19140625 266.20703125 C167.05881857 249.19252799 157.45321189 235.06102241 142.8828125 225.23828125 C114.37123663 208.92840052 82.03945373 214.20567539 59.91015625 238.39453125 Z M3.8828125 338.23828125 C1.82238895 340.86282286 1.82238895 340.86282286 0.2265625 344.015625 C-0.40378906 345.16998047 -1.03414062 346.32433594 -1.68359375 347.51367188 C-2.32836982 348.7342457 -2.97290017 349.95494936 -3.6171875 351.17578125 C-4.26022388 352.3621396 -4.90474464 353.54769464 -5.55078125 354.73242188 C-7.44225479 358.21564925 -9.27674689 361.72782961 -11.1171875 365.23828125 C-12.02791016 366.8936792 -12.02791016 366.8936792 -12.95703125 368.58251953 C-13.51519531 369.62520996 -14.07335937 370.66790039 -14.6484375 371.7421875 C-15.14923828 372.65943604 -15.65003906 373.57668457 -16.16601562 374.52172852 C-17.3406449 377.87647697 -17.04827746 379.8372817 -16.1171875 383.23828125 C-13.65085567 386.84128821 -13.65085567 386.84128821 -10.1171875 389.23828125 C-8.75510578 389.34228404 -7.38820589 389.386884 -6.0222168 389.39941406 C-5.17761398 389.40902161 -4.33301117 389.41862915 -3.46281433 389.42852783 C-2.54824966 389.43277771 -1.633685 389.43702759 -0.69140625 389.44140625 C0.24833542 389.44710632 1.18807709 389.4528064 2.15629578 389.4586792 C4.14772412 389.46813599 6.13916816 389.47466587 8.13061523 389.47851562 C11.17264263 389.48820901 14.21399099 389.51922097 17.25585938 389.55078125 C19.19010015 389.5573125 21.12434577 389.56256249 23.05859375 389.56640625 C23.96708572 389.57875305 24.8755777 389.59109985 25.81159973 389.6038208 C30.64491198 389.58683691 33.99671994 389.44945829 37.8828125 386.23828125 C40.00936671 383.04844993 40.97307282 381.22675826 40.62158203 377.37744141 C39.85970308 374.1400853 38.7895477 371.73044073 37.1875 368.82421875 C36.639729 367.82092529 36.09195801 366.81763184 35.52758789 365.78393555 C34.94356201 364.73761963 34.35953613 363.69130371 33.7578125 362.61328125 C33.16540771 361.54182861 32.57300293 360.47037598 31.96264648 359.36645508 C30.79500254 357.25950432 29.62349487 355.15468921 28.44775391 353.05224609 C27.16575825 350.7470539 25.91088769 348.4320086 24.67578125 346.1015625 C24.10472656 345.05355469 23.53367187 344.00554687 22.9453125 342.92578125 C22.48253906 342.06339844 22.01976562 341.20101563 21.54296875 340.3125 C19.33565085 337.55465105 17.14575837 336.52595721 13.8828125 335.23828125 C9.42284673 335.23828125 7.62562932 335.89963431 3.8828125 338.23828125 Z " fill="#000000" transform="translate(244.1171875,-0.23828125)"/>
</svg>
