<?xml version="1.0" encoding="UTF-8"?>
<svg version="1.1" xmlns="http://www.w3.org/2000/svg" width="512" height="512">
<path d="M0 0 C1.12535156 0.04833984 1.12535156 0.04833984 2.2734375 0.09765625 C5.84639181 1.37371136 7.82843744 3.70601499 9.625 6.9375 C10.37290609 9.76013992 10.53917642 12.52855441 10.6875 15.4375 C12.47595893 36.84454744 21.49833744 54.66404771 37.80078125 68.76953125 C55.34675284 82.2384306 76.18080969 86.42619449 97.97119141 83.63720703 C115.51721423 80.40320188 131.7576603 70.09442284 142.5625 55.97265625 C151.82480727 42.34232908 156.78203166 28.2168759 157.67919922 11.65869141 C157.97612162 7.88534014 158.55821284 6.02286448 160.9140625 3.01171875 C164.76443171 0.06568698 167.83961438 -0.50059868 172.625 -0.0625 C176.75249262 1.96372365 178.92705374 3.70035228 180.625 7.9375 C183.52448166 28.7987057 174.03829624 52.821386 161.84106445 69.17651367 C153.06174215 80.58245528 142.57231549 89.0739251 130.625 96.9375 C131.29144531 97.33839844 131.95789063 97.73929687 132.64453125 98.15234375 C155.82917463 112.45224267 172.02579196 133.30782696 178.4375 159.875 C183.63638625 185.13547082 179.91888245 210.63563728 166.625 232.9375 C163.86330892 237.1204899 160.76609484 241.03510927 157.625 244.9375 C156.449375 246.5153125 156.449375 246.5153125 155.25 248.125 C139.3223427 265.19034711 117.61954425 275.38255064 94.625 277.9375 C94.625 299.0575 94.625 320.1775 94.625 341.9375 C113.4879008 341.77929879 113.4879008 341.77929879 132.3503418 341.57714844 C134.71662679 341.56546503 137.08291982 341.55527238 139.44921875 341.546875 C140.67596313 341.52641113 141.90270752 341.50594727 143.16662598 341.48486328 C144.34358032 341.48437988 145.52053467 341.48389648 146.7331543 341.48339844 C148.26204536 341.47007477 148.26204536 341.47007477 149.82182312 341.45648193 C153.37641834 342.06644149 155.04442822 343.47175947 157.625 345.9375 C159.48355282 349.65460563 159.20408439 353.89027281 158.625 357.9375 C156.09823961 361.28375024 154.58566458 362.61727847 150.625 363.9375 C148.79967414 364.02576965 146.97125311 364.05513203 145.14379883 364.05102539 C144.02286331 364.05094986 142.9019278 364.05087433 141.74702454 364.05079651 C140.53757675 364.04563522 139.32812897 364.04047394 138.08203125 364.03515625 C136.22393074 364.03303383 136.22393074 364.03303383 134.32829285 364.03086853 C131.03868463 364.02621602 127.7491254 364.0172339 124.45953369 364.00616455 C121.10128377 363.99592629 117.74302667 363.99136574 114.38476562 363.98632812 C107.79815788 363.97529145 101.21158295 363.95854767 94.625 363.9375 C94.63610306 364.65302536 94.64720612 365.36855072 94.65864563 366.10575867 C94.75895525 372.85879018 94.83501883 379.61161292 94.88406086 386.36522198 C94.91012227 389.83714849 94.94545387 393.30845792 95.00219727 396.7800293 C95.06706834 400.77398499 95.09120862 404.76729558 95.11328125 408.76171875 C95.13908768 410.00459152 95.1648941 411.24746429 95.19148254 412.52799988 C95.19460672 422.13101503 95.19460672 422.13101503 92.23486328 425.20800781 C88.36612326 427.77172664 85.22542955 428.35866609 80.625 427.9375 C76.51635741 425.92053 74.27055971 424.18637809 72.625 419.9375 C72.38449097 417.33050537 72.38449097 417.33050537 72.39794922 414.34277344 C72.39810028 413.22191345 72.39825134 412.10105347 72.39840698 410.94622803 C72.40872955 409.74194153 72.41905212 408.53765503 72.4296875 407.296875 C72.4325174 406.05955627 72.43534729 404.82223755 72.43826294 403.54742432 C72.447558 400.26598459 72.46551295 396.98474246 72.4876709 393.70336914 C72.50816952 390.35174378 72.51710276 387.00010993 72.52734375 383.6484375 C72.5493997 377.07804777 72.58287418 370.50779004 72.625 363.9375 C71.9367514 363.94638245 71.24850281 363.95526489 70.53939819 363.9644165 C63.36928623 364.05298295 56.19932994 364.11327339 49.02880859 364.15722656 C46.35336625 364.17506825 43.67877984 364.20461049 41.00341797 364.23925781 C37.15581429 364.28783506 33.30879213 364.31048365 29.4609375 364.328125 C28.26697357 364.34877014 27.07300964 364.36941528 25.84286499 364.39068604 C19.48796539 364.39239921 15.40238685 364.3277934 10.625 359.9375 C8.61957034 357.06854256 8.35859735 354.95048782 8.6875 351.5 C8.74035156 350.75878906 8.79320312 350.01757812 8.84765625 349.25390625 C10.00022938 345.81935417 11.48764203 343.69797102 14.625 341.9375 C19.01583763 341.224175 23.3628628 341.35668014 27.80078125 341.44921875 C29.50349182 341.45677185 29.50349182 341.45677185 31.24060059 341.46447754 C35.473158 341.49060008 39.70535486 341.56040717 43.9375 341.625 C53.404375 341.728125 62.87125 341.83125 72.625 341.9375 C72.625 320.8175 72.625 299.6975 72.625 277.9375 C64.705 276.4525 64.705 276.4525 56.625 274.9375 C33.00360927 268.14559885 12.84654224 252.46545931 0.4375 231.25 C-12.42199958 207.74815594 -16.41901823 181.02016989 -9.375 154.9375 C-2.62086706 133.31437842 10.17956457 115.22081874 28.73925781 102.3996582 C31.59510969 100.42576058 34.29986812 98.53221239 36.625 95.9375 C35.97015625 95.55980469 35.3153125 95.18210937 34.640625 94.79296875 C26.69662077 90.00188145 20.19536467 84.41558427 13.625 77.9375 C12.52671875 76.85855469 12.52671875 76.85855469 11.40625 75.7578125 C-5.32985 58.15834227 -12.39361845 34.29216154 -12.96875 10.49609375 C-12.18586999 5.8039642 -10.74945756 4.23752099 -7.375 0.9375 C-4.50068428 -0.02060524 -2.95730739 -0.19681739 0 0 Z M27.4375 133.125 C14.111308 148.90889134 8.4914683 168.44996412 9.625 188.9375 C11.41117633 203.469104 16.4519706 216.49485508 25.625 227.9375 C26.28113281 228.76894531 26.93726563 229.60039062 27.61328125 230.45703125 C39.8980494 245.07747744 57.95156884 254.2680481 76.94140625 256.16943359 C96.42419331 257.44127122 115.27551706 252.55746811 130.4765625 239.87109375 C144.66869971 227.09817026 156.38616482 210.86675673 157.82788086 191.16503906 C158.56297954 169.13041024 154.90872804 149.70539171 139.625 132.9375 C138.89796875 132.11894531 138.1709375 131.30039063 137.421875 130.45703125 C124.16136179 116.31961313 106.2629753 108.25874663 86.96655273 107.6027832 C63.57295191 107.220724 43.62941062 116.21275293 27.4375 133.125 Z " fill="#000000" transform="translate(161.375,42.0625)"/>
</svg>
