<?xml version="1.0" encoding="UTF-8"?>
<svg version="1.1" xmlns="http://www.w3.org/2000/svg" width="512" height="512">
<path d="M0 0 C0.96226501 -0.00807175 1.92453003 -0.01614349 2.91595459 -0.02445984 C4.94981118 -0.0382332 6.98369024 -0.04898523 9.01757812 -0.05688477 C11.0573627 -0.0683207 13.09711939 -0.08863663 15.13671875 -0.1184082 C50.16853006 -0.628055 81.05995464 9.20669108 106.64575195 33.62646484 C113.74748113 40.58603582 119.71022892 47.69353687 124.859375 56.23828125 C125.20548828 56.80981934 125.55160156 57.38135742 125.90820312 57.97021484 C130.15594518 65.09867699 133.50330658 72.37974901 136.171875 80.23828125 C136.51738403 81.24991333 136.51738403 81.24991333 136.86987305 82.28198242 C141.15159821 95.67710427 142.29140415 108.3826958 142.15234375 122.328125 C142.14673103 124.01062131 142.14246889 125.6931226 142.13948059 127.37562561 C142.12816343 131.75021506 142.09881368 136.12449366 142.06536865 140.4989624 C142.03438033 144.98429157 142.02091454 149.4696722 142.00585938 153.95507812 C141.97392779 162.71628664 141.92289591 171.47724501 141.859375 180.23828125 C142.93968994 180.35727783 144.02000488 180.47627441 145.13305664 180.59887695 C146.5744245 180.76606859 148.01574704 180.93365127 149.45703125 181.1015625 C150.52080994 181.21715515 150.52080994 181.21715515 151.6060791 181.33508301 C162.36197904 182.61120673 170.83650275 187.06725837 178.859375 194.23828125 C179.48585938 194.78355469 180.11234375 195.32882812 180.7578125 195.890625 C190.86665305 205.27109931 195.76647998 217.95838971 196.33178711 231.62280273 C196.53121516 247.36702942 191.03751088 260.45837297 180.30859375 271.87890625 C173.37628671 278.55691813 166.05413784 282.50629101 156.859375 285.23828125 C156.28687012 285.43349365 155.71436523 285.62870605 155.12451172 285.82983398 C152.01498338 286.39054113 149.30267106 285.90509962 146.171875 285.5 C132.01106779 283.87032279 132.01106779 283.87032279 119.10699463 288.56262207 C112.41046886 295.13788581 107.75782956 303.87372112 103.65803528 312.23709106 C101.61507393 316.33033311 99.69110653 318.74117664 95.859375 321.23828125 C92.6656189 321.7388525 92.6656189 321.7388525 88.98974609 321.73948669 C88.31113211 321.74502109 87.63251812 321.75055549 86.93334007 321.75625759 C84.66612167 321.76983892 82.400009 321.75490992 80.1328125 321.73999023 C78.50473565 321.74377436 76.87666201 321.74927517 75.24859619 321.75636292 C70.8312051 321.77032275 66.41420327 321.75914413 61.9968338 321.7426517 C57.37337439 321.72879919 52.74993752 321.73526151 48.12646484 321.73878479 C40.36224089 321.74148675 32.59817154 321.72801251 24.83398438 321.70483398 C15.85834571 321.67822432 6.88296554 321.6764772 -2.09269905 321.68822235 C-10.72807242 321.69900275 -19.36335231 321.692811 -27.99871826 321.67866707 C-31.6732606 321.67290954 -35.34773449 321.67298812 -39.02227783 321.67773247 C-43.3496021 321.68250591 -47.67664343 321.67238541 -52.00391388 321.65077782 C-53.59178971 321.64521478 -55.17969276 321.64474024 -56.7675705 321.64973068 C-58.93569266 321.65569004 -61.10295166 321.64316709 -63.27099609 321.6259613 C-64.48403412 321.62353141 -65.69707214 321.62110151 -66.9468689 321.61859798 C-70.47957697 321.1979184 -72.31311751 320.36087033 -75.140625 318.23828125 C-76.89686111 316.00039583 -78.4626836 313.8284233 -80.00390625 311.453125 C-80.44075241 310.79623184 -80.87759857 310.13933868 -81.3276825 309.46253967 C-82.24429446 308.07975947 -83.15589954 306.69364868 -84.06274414 305.30444336 C-85.45539768 303.1723018 -86.86394817 301.05137949 -88.27539062 298.93164062 C-89.16500966 297.58526077 -90.0537142 296.23827613 -90.94140625 294.890625 C-91.36319656 294.25414536 -91.78498688 293.61766571 -92.21955872 292.9618988 C-95.140625 288.47103929 -95.140625 288.47103929 -95.140625 286.23828125 C-96.49256958 286.26970215 -96.49256958 286.26970215 -97.87182617 286.30175781 C-101.28078851 286.37075366 -104.68898778 286.42047175 -108.09838867 286.45800781 C-109.56172542 286.47787574 -111.02498549 286.50498007 -112.48803711 286.54003906 C-129.87357819 286.94560228 -143.35221851 282.65223608 -156.390625 270.67578125 C-166.86684304 259.76583443 -170.60323502 246.23877664 -170.57226562 231.43798828 C-170.23784643 215.87940479 -164.08862677 203.67748585 -152.890625 192.92578125 C-144.25040823 185.64587543 -134.10740697 181.57957415 -122.921875 180.6953125 C-121.83970703 180.60870361 -120.75753906 180.52209473 -119.64257812 180.43286133 C-118.81693359 180.3686499 -117.99128906 180.30443848 -117.140625 180.23828125 C-117.14728683 179.43300491 -117.15394867 178.62772858 -117.16081238 177.79804993 C-117.22160156 170.1080662 -117.26693694 162.41820333 -117.29606152 154.72803974 C-117.31153934 150.77700134 -117.33243795 146.82616582 -117.36694336 142.87524414 C-117.7380866 99.16452008 -117.7380866 99.16452008 -111.078125 80.55078125 C-110.78212402 79.69758301 -110.48612305 78.84438477 -110.18115234 77.96533203 C-105.19262358 64.23988941 -97.90991814 52.08532559 -88.140625 41.23828125 C-87.45742187 40.41328125 -86.77421875 39.58828125 -86.0703125 38.73828125 C-65.11456697 13.99348948 -32.05532724 0.26246994 0 0 Z M-75.72949219 52.57714844 C-106.49422409 88.79224115 -100.140625 134.22838865 -100.140625 180.23828125 C-25.890625 180.23828125 48.359375 180.23828125 124.859375 180.23828125 C128.18959013 104.65411529 128.18959013 104.65411529 94.35546875 45.578125 C80.91425507 32.51832639 64.06028446 23.56945572 45.859375 19.23828125 C45.14716797 19.05354248 44.43496094 18.86880371 43.70117188 18.6784668 C34.6038211 16.645292 25.32618367 16.90174656 16.0546875 16.92260742 C13.12982596 16.92575921 10.20598654 16.90227658 7.28125 16.87695312 C-25.21788034 16.76785805 -53.82577186 28.29743133 -75.72949219 52.57714844 Z M-145.890625 210.98828125 C-152.48326072 219.01409865 -153.96950891 227.20137643 -153.5234375 237.39453125 C-152.58873067 246.77975086 -148.19953913 254.52825775 -141.328125 260.92578125 C-132.85559313 267.75846824 -124.24941909 269.83807735 -113.540802 269.75294495 C-111.85009514 269.76336324 -111.85009514 269.76336324 -110.12523258 269.773992 C-106.36990482 269.7922047 -102.61521288 269.78201307 -98.85986328 269.77172852 C-96.15866147 269.7787899 -93.45750395 269.78739981 -90.75631714 269.7978363 C-84.19364226 269.81942092 -77.63114116 269.8193636 -71.06844248 269.81121076 C-65.73123831 269.80489718 -60.39408461 269.80606021 -55.05688095 269.81248283 C-53.91511076 269.81383532 -53.91511076 269.81383532 -52.7502745 269.81521512 C-51.2036666 269.81706643 -49.65705872 269.81892899 -48.11045085 269.82080268 C-33.6239067 269.83736215 -19.13746008 269.82867808 -4.65092181 269.8118171 C8.5838673 269.79712502 21.81842928 269.81174483 35.05318914 269.84058727 C48.66345777 269.87002569 62.27362174 269.88094041 75.88392079 269.87140507 C77.42528031 269.87038258 78.96663986 269.86938797 80.50799942 269.86842155 C81.26625543 269.86794516 82.02451144 269.86746877 82.80574491 269.86697795 C88.13126796 269.8648195 93.45669128 269.87458754 98.78219223 269.88919258 C105.28001257 269.90676501 111.7775436 269.90652878 118.27535282 269.88384093 C121.58648872 269.8727419 124.89669955 269.87216774 128.20787811 269.88814163 C131.80759426 269.90412946 135.40593263 269.88906458 139.00558472 269.86647034 C140.03771115 269.87830607 141.06983759 269.89014179 142.13324058 269.90233618 C152.29983487 269.7733562 161.69196824 266.35070772 169.109375 259.2578125 C176.55048433 250.67063946 179.37887494 241.85449696 179.171875 230.5859375 C178.26460727 220.86683195 173.86430622 212.85321783 166.75390625 206.296875 C157.05279248 198.29888276 147.32041325 197.08888314 135.088974 197.09111023 C134.00271133 197.08743354 132.91644865 197.08375685 131.79726893 197.07996875 C128.15642643 197.06895349 124.51561251 197.06509172 120.87475586 197.0612793 C118.26445424 197.05501302 115.65415351 197.04836608 113.04385376 197.04136658 C105.21085592 197.02164254 97.37785687 197.01154145 89.54484043 197.00263879 C85.85113161 196.99824952 82.15742421 196.9928844 78.46371651 196.98764992 C66.17671856 196.97064224 53.88972149 196.95614936 41.60271358 196.94890118 C38.4171899 196.94699146 35.23166623 196.9450711 32.04614258 196.94311523 C31.25445148 196.94263149 30.46276038 196.94214775 29.64707864 196.94164935 C16.82984246 196.93335372 4.01269975 196.90802265 -8.80449564 196.87553456 C-21.97956481 196.84241302 -35.15458655 196.82444785 -48.32969755 196.82125694 C-55.72059553 196.81909663 -63.11135717 196.81041838 -70.50221443 196.78479576 C-77.45848143 196.7607346 -84.41449995 196.75729496 -91.37080002 196.76755714 C-93.91803108 196.76805183 -96.46527434 196.7617515 -99.01246834 196.7480011 C-117.58230604 196.65339864 -132.38406512 196.85483463 -145.890625 210.98828125 Z M-74.140625 286.23828125 C-71.52470288 292.77808656 -68.56918223 299.5169924 -63.140625 304.23828125 C-58.24838804 306.10464589 -53.50856213 306.06419581 -48.34033203 305.98388672 C-46.8592383 306.00809181 -45.3782252 306.03774374 -43.89733887 306.0723877 C-39.89603991 306.14838935 -35.89889079 306.14230372 -31.89710474 306.11623907 C-28.54717364 306.10179944 -25.19802213 306.12747491 -21.84819305 306.15282738 C-13.93962207 306.21186336 -6.0330832 306.20380994 1.87548828 306.15283203 C10.012579 306.10147929 18.14364229 306.159492 26.27997863 306.27224433 C33.2862297 306.36565787 40.2906012 306.39254515 47.29742539 306.36650002 C51.47360403 306.35151293 55.64599347 306.36055854 59.82165146 306.43304062 C76.34205083 307.4301528 76.34205083 307.4301528 91.36460114 302.48459625 C95.15229038 298.51093942 99.859375 292.00988208 99.859375 286.23828125 C42.439375 286.23828125 -14.980625 286.23828125 -74.140625 286.23828125 Z " fill="#000000" transform="translate(186.140625,176.76171875)"/>
<path d="M0 0 C1.57007813 0.78503906 1.57007813 0.78503906 3.171875 1.5859375 C27.4108202 14.7313972 44.02537399 37.86528407 52.2578125 63.828125 C62.12986767 98.56128498 51.84807234 136.71890371 36 168 C35.68949707 168.62213379 35.37899414 169.24426758 35.05908203 169.88525391 C30.41062278 179.14676007 25.1628467 187.66267371 19 196 C18.06414062 197.27423828 18.06414062 197.27423828 17.109375 198.57421875 C3.17299336 216.75592673 -15.56489883 232.57069505 -38.703125 236.6015625 C-58.35660063 238.97674557 -76.39818391 232.89385201 -92 221 C-125.68658765 193.31430543 -145.68587555 150.64250348 -152 108 C-153.29738621 84.91547298 -151.50311609 64.77408784 -141 44 C-140.46503906 42.94167969 -139.93007813 41.88335937 -139.37890625 40.79296875 C-126.97185552 18.09133875 -104.7250378 0.18895531 -79.9296875 -7.28515625 C-52.86549065 -14.88870486 -24.99898004 -12.60877518 0 0 Z M-106.80517578 27.79833984 C-108.21643105 29.18581258 -109.60852522 30.59269052 -111 32 C-111.81339844 32.80308594 -112.62679687 33.60617188 -113.46484375 34.43359375 C-130.63972195 52.31308234 -135.64528618 74.95002163 -135.33984375 98.97265625 C-134.25433245 131.91184364 -118.39126814 167.22671318 -97 192 C-95.99066406 193.22589844 -95.99066406 193.22589844 -94.9609375 194.4765625 C-83.6182968 207.79900958 -68.66808933 218.41881667 -50.87109375 220.21484375 C-34.60827697 220.94216114 -20.64677795 212.29235434 -8.98828125 201.796875 C16.51270034 178.15358081 36.35337373 138.26114184 38.13891602 103.27832031 C38.57826166 89.62945957 38.54969605 76.97782152 34 64 C33.63777344 62.94039062 33.27554688 61.88078125 32.90234375 60.7890625 C25.35379071 40.88135312 8.94257453 23.54381627 -10 14 C-42.17161948 -0.47291201 -80.62309508 2.83243692 -106.80517578 27.79833984 Z " fill="#000000" transform="translate(441,27)"/>
<path d="M0 0 C10.02952005 10.45583074 11.4787585 23.14112738 11.27734375 36.921875 C10.84254527 48.64629174 6.08661373 57.42912866 -2.375 65.3125 C-8.74498983 70.40571627 -14.95074466 71.58804356 -23.04296875 71.34375 C-31.05579475 70.41227221 -37.81784849 66.0985741 -43 60 C-48.59688224 50.97797475 -51.39585617 42.18828069 -51.3125 31.625 C-51.30758545 30.88185547 -51.3026709 30.13871094 -51.29760742 29.37304688 C-51.0625147 18.31042734 -47.30475488 8.34264759 -39.6875 0.1875 C-28.24259633 -10.51261601 -11.68147992 -10.45062816 0 0 Z M-28 13 C-34.12319709 20.61262342 -34.87859459 28.53564562 -34 38 C-32.55882667 44.3083695 -30.01501235 49.08068369 -24.79296875 53 C-21.9434931 54.58925004 -20.17487011 54.67550428 -17 54 C-11.60064394 51.30032197 -9.53921093 48.26651157 -7 43 C-4.50822537 35.40761286 -4.77016531 25.50068675 -8.1875 18.3125 C-10.83418249 13.82432293 -13.52426087 11.04241647 -18.375 9 C-22.28322196 9 -25.01975867 10.63709438 -28 13 Z " fill="#000000" transform="translate(452,94)"/>
<path d="M0 0 C7.90085595 7.20571626 11.96721757 17.22558696 12.53125 27.83203125 C12.81453077 41.84197741 10.39242928 53.74013213 0.53515625 64.31640625 C-6.16865296 70.54682575 -12.87399281 72.11081885 -21.921875 71.8046875 C-30.96114988 70.95955204 -36.81406253 66.22692149 -42.8046875 59.53515625 C-48.21889373 51.24346979 -50.19829924 42.63929183 -50.1796875 32.84765625 C-50.17807617 31.9664209 -50.17646484 31.08518555 -50.17480469 30.17724609 C-49.96811568 19.1315421 -46.95976236 10.2475365 -39.4921875 1.97265625 C-27.53634405 -8.87101572 -13.1096523 -10.64095154 0 0 Z M-25.8046875 12.53515625 C-31.56758362 18.46270654 -33.00825065 23.84336845 -33.2421875 31.91015625 C-33.06460815 40.07880618 -31.55096926 45.39654852 -26.1796875 51.53515625 C-23.59375794 53.71278115 -22.43053214 54.43327456 -19.1171875 54.97265625 C-14.30538132 54.33713468 -11.86005187 52.22674662 -8.8046875 48.53515625 C-4.41732812 41.39443938 -3.78855268 33.73608275 -4.8046875 25.53515625 C-6.39909268 19.74584545 -9.03242862 15.28478823 -13.8046875 11.53515625 C-18.79749306 8.98563851 -21.19204963 9.42663942 -25.8046875 12.53515625 Z " fill="#000000" transform="translate(371.8046875,93.46484375)"/>
<path d="M0 0 C3.69186542 2.59216083 4.82883761 4.04149064 5.625 8.5 C4.50384234 14.77848287 -0.92355369 17.81253084 -5.875 21.375 C-20.80150478 32.51064642 -28.23161973 45.26995114 -33 63 C-35.53985706 71.69323804 -35.53985706 71.69323804 -39 74 C-43.32351988 74.56045628 -45.29704773 74.4786058 -48.9375 72 C-51.62622362 68.08912927 -51.73010434 65.51969352 -51 61 C-48.15488102 46.12055789 -42.01069178 32.44409337 -32 21 C-31.49339844 20.35160156 -30.98679687 19.70320313 -30.46484375 19.03515625 C-23.7870928 10.74949475 -11.15691554 -1.59384508 0 0 Z " fill="#000000" transform="translate(154,221)"/>
<path d="M0 0 C0.98367554 -0.0038269 1.96735107 -0.00765381 2.98083496 -0.01159668 C5.05868555 -0.01431627 7.13657035 -0.00695182 9.21435547 0.00976562 C12.39498211 0.03117416 15.57334987 0.00996512 18.75390625 -0.015625 C20.77344249 -0.01298173 22.79297732 -0.00785678 24.8125 0 C25.76362671 -0.00809692 26.71475342 -0.01619385 27.69470215 -0.02453613 C34.27692131 0.06895366 34.27692131 0.06895366 37.50390625 2.43945312 C39.45637769 5.35184437 39.46996833 7.21522151 39.3046875 10.62890625 C38.69729423 13.52891139 37.24125208 14.81433671 34.90625 16.53125 C31.51282185 18.22796408 27.65202488 17.71615156 23.91796875 17.734375 C22.57494438 17.74292511 22.57494438 17.74292511 21.20478821 17.75164795 C19.30751733 17.7611039 17.41022999 17.76763429 15.51293945 17.77148438 C12.6157547 17.78117639 9.71928338 17.81218831 6.82226562 17.84375 C4.97917088 17.85028143 3.13607106 17.85553135 1.29296875 17.859375 C0.42822433 17.8717218 -0.43652008 17.8840686 -1.32746887 17.89678955 C-6.06591677 17.87931997 -9.26017745 17.64434018 -13.09375 14.53125 C-14.65846233 11.40182535 -14.79076958 7.92042777 -14.09375 4.53125 C-10.55337924 -0.78580848 -5.79187825 -0.04930615 0 0 Z " fill="#000000" transform="translate(380.09375,196.46875)"/>
<path d="M0 0 C4.54294739 0.81124061 5.74413968 1.93653043 8.5 5.625 C9.15525696 8.99998148 9.06344179 12.26237732 8.9375 15.6875 C8.93169922 16.58533203 8.92589844 17.48316406 8.91992188 18.40820312 C8.84006964 22.70425341 8.7640253 25.86966996 6.5 29.625 C3.86491618 31.67450964 2.3864488 31.6229723 -1 31.5625 C-5.36030712 30.39456059 -6.21338862 29.4851934 -8.5 25.625 C-9.10279906 22.27920568 -9.10428764 19.01717283 -9.0625 15.625 C-9.08634766 14.73554688 -9.11019531 13.84609375 -9.13476562 12.9296875 C-9.12458824 8.38378948 -8.98074859 6.26545765 -6.18359375 2.5390625 C-3.5 0.625 -3.5 0.625 0 0 Z " fill="#000000" transform="translate(301.5,394.375)"/>
<path d="M0 0 C2.98416692 2.06296757 4.73522094 3.67484718 5.46264648 7.31542969 C5.63776146 10.08126908 5.63265706 12.79224409 5.5625 15.5625 C5.57345703 16.50802734 5.58441406 17.45355469 5.59570312 18.42773438 C5.5233246 25.25544161 5.5233246 25.25544161 3.1796875 28.58984375 C0.04039869 30.62081733 -2.2728287 31 -6 31 C-8.80189446 29.23358828 -10.51524911 27.96950178 -12 25 C-12.26385085 21.90215121 -12.23151467 18.79534677 -12.25 15.6875 C-12.270625 14.83220703 -12.29125 13.97691406 -12.3125 13.09570312 C-12.34251916 8.25136152 -12.21172305 4.90551759 -9 1 C-5.86128812 -0.56935594 -3.46144178 -0.35201103 0 0 Z " fill="#000000" transform="translate(168,395)"/>
<path d="M0 0 C2.94787997 2.07218621 4.73825745 3.69705794 5.46508789 7.31518555 C5.63760091 10.08079288 5.6326474 12.79262575 5.5625 15.5625 C5.57345703 16.50802734 5.58441406 17.45355469 5.59570312 18.42773438 C5.5233246 25.25544161 5.5233246 25.25544161 3.1796875 28.58984375 C0.04039869 30.62081733 -2.2728287 31 -6 31 C-8.80189446 29.23358828 -10.51524911 27.96950178 -12 25 C-12.23752513 21.88063641 -12.18518682 18.7524207 -12.1875 15.625 C-12.19974609 14.76132812 -12.21199219 13.89765625 -12.22460938 13.0078125 C-12.22654297 12.1725 -12.22847656 11.3371875 -12.23046875 10.4765625 C-12.23663208 9.3330835 -12.23663208 9.3330835 -12.24291992 8.16650391 C-11.96645433 5.70081986 -11.28562824 4.11146881 -10 2 C-6.78044012 -0.29968563 -3.87440468 -0.55348638 0 0 Z " fill="#000000" transform="translate(339,395)"/>
<path d="M0 0 C2.61524059 0.87174686 3.66162414 1.43884864 5.08837891 3.80493164 C6.65661153 7.58103755 6.36887624 11.39887741 6.375 15.4375 C6.39949219 16.28376953 6.42398437 17.13003906 6.44921875 18.00195312 C6.46859386 22.12562315 6.34163889 24.42666649 4.19140625 28.03515625 C1.15166757 30.76062605 -0.95747849 31 -5 31 C-7.94755732 29.65437601 -9.54277272 28.91445456 -11 26 C-11.31877503 22.56973857 -11.32426215 19.13075474 -11.375 15.6875 C-11.41238281 14.73681641 -11.44976562 13.78613281 -11.48828125 12.80664062 C-11.54792766 8.06475122 -11.56576665 5.761937 -8.66796875 1.859375 C-5.42912151 -0.39785968 -3.8717071 -0.57663723 0 0 Z " fill="#000000" transform="translate(270,395)"/>
<path d="M0 0 C2.36497439 1.86708505 3.66030715 3.32061431 5 6 C5.28978025 9.09725123 5.27782438 12.20325265 5.3125 15.3125 C5.34150391 16.16779297 5.37050781 17.02308594 5.40039062 17.90429688 C5.44225939 22.06218752 5.35445316 24.40027448 3.19921875 28.046875 C0.18387471 30.72480043 -2.01639603 30.92886421 -6 31 C-9.39808026 29.89791992 -9.94731917 29.07902124 -12 26 C-12.48179241 22.55796754 -12.41638528 19.09719883 -12.4375 15.625 C-12.47037109 14.67882812 -12.50324219 13.73265625 -12.53710938 12.7578125 C-12.57340599 8.05905009 -12.54847216 5.74462068 -9.6953125 1.87109375 C-6.16647248 -0.57863722 -4.21097354 -0.6890684 0 0 Z " fill="#000000" transform="translate(134,395)"/>
<path d="M0 0 C2.95428227 2.07059667 4.74518876 3.68532375 5.44873047 7.31518555 C5.60143927 10.0806545 5.58336919 12.79426395 5.5 15.5625 C5.50386719 16.98079102 5.50386719 16.98079102 5.5078125 18.42773438 C5.39706944 26.26280564 5.39706944 26.26280564 2 30 C-0.64943973 31.0642101 -3.16276278 31.24334978 -6 31 C-9.48131633 28.92602432 -10.71486282 27.85541154 -12 24 C-12.14854388 21.19480593 -12.23104204 18.43077873 -12.25 15.625 C-12.270625 14.86960937 -12.29125 14.11421875 -12.3125 13.3359375 C-12.34475357 8.7236767 -11.9953597 5.73720113 -9 2 C-5.48175489 -0.34549674 -4.14224306 -0.57991403 0 0 Z " fill="#000000" transform="translate(202,395)"/>
<path d="M0 0 C3.68233904 0.69043857 5.36813928 1.93063928 8 4.5625 C9.26864164 8.36842493 9.22320072 11.97120641 9.25 15.9375 C9.270625 16.69289063 9.29125 17.44828125 9.3125 18.2265625 C9.34486566 22.85485193 8.94864358 25.77551658 6 29.5625 C3.30468668 31.68024618 1.92785868 31.55996873 -1.5625 31.4375 C-5 30.5625 -5 30.5625 -6.68554688 28.80834961 C-9.01376263 24.83040445 -8.51228035 20.62881785 -8.5 16.125 C-8.52835937 15.18333984 -8.55671875 14.24167969 -8.5859375 13.27148438 C-8.59921482 8.56799428 -8.54685828 6.29164438 -5.65625 2.4375 C-3 0.5625 -3 0.5625 0 0 Z " fill="#000000" transform="translate(96,394.4375)"/>
<path d="M0 0 C2.6640625 1.3359375 2.6640625 1.3359375 5 4 C5.70914446 7.67690247 5.60607151 11.26821135 5.5 15 C5.50386719 16.49660156 5.50386719 16.49660156 5.5078125 18.0234375 C5.39440848 26.48337704 5.39440848 26.48337704 2 30 C-1.85185224 31.06995896 -4.07497251 31.370011 -7.8125 29.875 C-11.41033422 26.79114209 -11.93257293 23.85465995 -12.30078125 19.1875 C-12.31526559 17.79173635 -12.3189383 16.39582395 -12.3125 15 C-12.32861328 14.30132812 -12.34472656 13.60265625 -12.36132812 12.8828125 C-12.36556048 8.39651803 -11.78179714 5.54402259 -9 2 C-5.48746854 -0.34168764 -4.13530644 -0.49623677 0 0 Z " fill="#000000" transform="translate(65,395)"/>
<path d="M0 0 C4.5682968 2.84249578 4.5682968 2.84249578 5.625 5.67578125 C6.1521539 8.94303718 6.17110596 12.12918342 6.1875 15.4375 C6.20167969 16.73558594 6.21585938 18.03367187 6.23046875 19.37109375 C6.01320589 22.79206317 5.57966415 24.98876521 4 28 C0.93986449 30.62297329 -0.56325613 31.00753007 -4.625 30.9375 C-8.44084491 29.87754308 -9.06284369 29.31755955 -11 26 C-11.6348953 22.35599625 -11.50954422 18.69361205 -11.5 15 C-11.52835938 14.00226563 -11.55671875 13.00453125 -11.5859375 11.9765625 C-11.60548267 4.68621369 -11.60548267 4.68621369 -8.65625 1.34375 C-5.39275063 -0.30719674 -3.61199058 -0.60199843 0 0 Z " fill="#000000" transform="translate(236,395)"/>
<path d="M0 0 C1.77006873 3.46638459 1.81391182 5.37879117 1.11328125 9.13671875 C0.5 10.9375 0.5 10.9375 -1.3125 12.875 C-6.08237451 15.19179619 -11.27106607 15.77221055 -16.5 14.9375 C-19.80504612 12.27734093 -20.38272732 10.59422698 -21.125 6.4375 C-20.5 2.9375 -20.5 2.9375 -17.8125 0.0625 C-12.0334819 -3.64479463 -5.65477736 -4.66519132 0 0 Z " fill="#000000" transform="translate(192.5,210.0625)"/>
</svg>
